<?xml version="1.0" encoding="UTF-8"?>
<svg xmlns="http://www.w3.org/2000/svg" xmlns:xlink="http://www.w3.org/1999/xlink" width="512px" height="512px" viewBox="0 0 512 512" version="1.1">
<g id="surface1">
<path style=" stroke:none;fill-rule:nonzero;fill:rgb(1.960784%,38.823529%,73.333333%);fill-opacity:1;" d="M 256 0 C 397.386719 0 512 114.613281 512 256 C 512 397.386719 397.386719 512 256 512 C 114.613281 512 0 397.386719 0 256 C 0 114.613281 114.613281 0 256 0 Z M 256 0 "/>
<path style=" stroke:none;fill-rule:nonzero;fill:rgb(100%,100%,100%);fill-opacity:1;" d="M 361.074219 233.261719 L 306.140625 233.261719 L 306.140625 105.261719 C 306.140625 75.394531 289.964844 69.347656 270.230469 91.75 L 256.007812 107.925781 L 135.652344 244.816406 C 119.121094 263.484375 126.054688 278.773438 150.941406 278.773438 L 205.875 278.773438 L 205.875 406.773438 C 205.875 436.636719 222.054688 442.683594 241.785156 420.28125 L 256.007812 404.105469 L 376.363281 267.214844 C 392.898438 248.550781 385.964844 233.261719 361.074219 233.261719 Z M 361.074219 233.261719 "/>
</g>
</svg>
