<?xml version="1.0" encoding="UTF-8"?>
<svg xmlns="http://www.w3.org/2000/svg" xmlns:xlink="http://www.w3.org/1999/xlink" width="540px" height="720px" viewBox="0 0 540 720" version="1.1">
<defs>
<filter id="alpha" filterUnits="objectBoundingBox" x="0%" y="0%" width="100%" height="100%">
  <feColorMatrix type="matrix" in="SourceGraphic" values="0 0 0 0 1 0 0 0 0 1 0 0 0 0 1 0 0 0 1 0"/>
</filter>
<mask id="mask0">
  <g filter="url(#alpha)">
<rect x="0" y="0" width="540" height="720" style="fill:rgb(0%,0%,0%);fill-opacity:0.101961;stroke:none;"/>
  </g>
</mask>
<clipPath id="clip1">
  <rect x="0" y="0" width="540" height="720"/>
</clipPath>
<g id="surface5" clip-path="url(#clip1)">
<path style=" stroke:none;fill-rule:nonzero;fill:rgb(0%,0%,0%);fill-opacity:1;" d="M 392.144531 408.378906 L 392.144531 607.179688 L 415.648438 661.371094 L 417.089844 408.378906 Z M 392.144531 408.378906 "/>
</g>
<mask id="mask1">
  <g filter="url(#alpha)">
<rect x="0" y="0" width="540" height="720" style="fill:rgb(0%,0%,0%);fill-opacity:0.101961;stroke:none;"/>
  </g>
</mask>
<clipPath id="clip2">
  <rect x="0" y="0" width="540" height="720"/>
</clipPath>
<g id="surface8" clip-path="url(#clip2)">
<path style=" stroke:none;fill-rule:nonzero;fill:rgb(0%,0%,0%);fill-opacity:1;" d="M 168.277344 403.074219 L 168.277344 601.878906 L 144.777344 656.070312 L 143.332031 403.074219 Z M 168.277344 403.074219 "/>
</g>
<mask id="mask2">
  <g filter="url(#alpha)">
<rect x="0" y="0" width="540" height="720" style="fill:rgb(0%,0%,0%);fill-opacity:0.101961;stroke:none;"/>
  </g>
</mask>
<clipPath id="clip3">
  <rect x="0" y="0" width="540" height="720"/>
</clipPath>
<g id="surface11" clip-path="url(#clip3)">
<path style=" stroke:none;fill-rule:nonzero;fill:rgb(0%,0%,0%);fill-opacity:1;" d="M 540.144531 399.101562 L 540.144531 411.027344 L 36.203125 411.027344 L 36.203125 393.796875 Z M 540.144531 399.101562 "/>
</g>
<mask id="mask3">
  <g filter="url(#alpha)">
<rect x="0" y="0" width="540" height="720" style="fill:rgb(0%,0%,0%);fill-opacity:0.101961;stroke:none;"/>
  </g>
</mask>
<clipPath id="clip4">
  <rect x="0" y="0" width="540" height="720"/>
</clipPath>
<g id="surface14" clip-path="url(#clip4)">
<path style=" stroke:none;fill-rule:nonzero;fill:rgb(0%,0%,0%);fill-opacity:1;" d="M 415.417969 381.335938 C 406.59375 386.121094 398.726562 386.476562 390.65625 378.542969 C 387.601562 375.351562 383.90625 373.628906 380.109375 373.628906 C 383.140625 371.359375 393.191406 365.761719 411.011719 373.867188 C 412.324219 374.449219 413.5 375.539062 414.402344 377.007812 C 415.210938 378.136719 415.589844 379.746094 415.417969 381.335938 Z M 415.417969 381.335938 "/>
</g>
<mask id="mask4">
  <g filter="url(#alpha)">
<rect x="0" y="0" width="540" height="720" style="fill:rgb(0%,0%,0%);fill-opacity:0.101961;stroke:none;"/>
  </g>
</mask>
<clipPath id="clip5">
  <rect x="0" y="0" width="540" height="720"/>
</clipPath>
<g id="surface17" clip-path="url(#clip5)">
<path style=" stroke:none;fill-rule:nonzero;fill:rgb(0%,0%,0%);fill-opacity:1;" d="M 365.660156 384.664062 L 365.660156 388.066406 L 236.355469 388.066406 L 236.355469 385.34375 L 236.535156 384.664062 Z M 365.660156 384.664062 "/>
</g>
</defs>
<g id="surface1">
<path style=" stroke:none;fill-rule:nonzero;fill:rgb(90.196078%,90.196078%,90.196078%);fill-opacity:1;" d="M 392.144531 408.378906 L 392.144531 607.179688 L 415.648438 661.371094 L 417.4375 665.492188 L 510.167969 665.492188 L 512.042969 408.378906 Z M 392.144531 408.378906 "/>
<use xlink:href="#surface5" mask="url(#mask0)"/>
<path style=" stroke:none;fill-rule:nonzero;fill:rgb(90.196078%,90.196078%,90.196078%);fill-opacity:1;" d="M 168.277344 403.074219 L 168.277344 601.878906 L 144.777344 656.070312 L 142.988281 660.191406 L 50.253906 660.191406 L 48.382812 403.074219 Z M 168.277344 403.074219 "/>
<use xlink:href="#surface8" mask="url(#mask1)"/>
<path style=" stroke:none;fill-rule:nonzero;fill:rgb(90.196078%,90.196078%,90.196078%);fill-opacity:1;" d="M 540.144531 399.101562 L 540.144531 411.027344 L 36.203125 411.027344 L 36.203125 393.796875 L 83.039062 359.339844 L 498.929688 359.339844 Z M 540.144531 399.101562 "/>
<use xlink:href="#surface11" mask="url(#mask2)"/>
<path style=" stroke:none;fill-rule:nonzero;fill:rgb(24.705882%,23.921569%,33.72549%);fill-opacity:1;" d="M 108.332031 458.738281 L 85.847656 458.738281 L 76.484375 449.460938 L 118.632812 449.460938 Z M 108.332031 458.738281 "/>
<path style=" stroke:none;fill-rule:nonzero;fill:rgb(24.705882%,23.921569%,33.72549%);fill-opacity:1;" d="M 108.332031 497.175781 L 85.847656 497.175781 L 76.484375 487.898438 L 118.632812 487.898438 Z M 108.332031 497.175781 "/>
<path style=" stroke:none;fill-rule:nonzero;fill:rgb(24.705882%,23.921569%,33.72549%);fill-opacity:1;" d="M 108.332031 551.515625 L 85.847656 551.515625 L 76.484375 542.234375 L 118.632812 542.234375 Z M 108.332031 551.515625 "/>
<path style=" stroke:none;fill-rule:nonzero;fill:rgb(24.705882%,23.921569%,33.72549%);fill-opacity:1;" d="M 108.332031 605.851562 L 85.847656 605.851562 L 76.484375 596.574219 L 118.632812 596.574219 Z M 108.332031 605.851562 "/>
<path style=" stroke:none;fill-rule:nonzero;fill:rgb(24.705882%,23.921569%,33.72549%);fill-opacity:1;" d="M 452.09375 464.042969 L 474.574219 464.042969 L 483.941406 454.765625 L 441.789062 454.765625 Z M 452.09375 464.042969 "/>
<path style=" stroke:none;fill-rule:nonzero;fill:rgb(24.705882%,23.921569%,33.72549%);fill-opacity:1;" d="M 452.09375 502.476562 L 474.574219 502.476562 L 483.941406 493.199219 L 441.789062 493.199219 Z M 452.09375 502.476562 "/>
<path style=" stroke:none;fill-rule:nonzero;fill:rgb(24.705882%,23.921569%,33.72549%);fill-opacity:1;" d="M 452.09375 556.816406 L 474.574219 556.816406 L 483.941406 547.539062 L 441.789062 547.539062 Z M 452.09375 556.816406 "/>
<path style=" stroke:none;fill-rule:nonzero;fill:rgb(24.705882%,23.921569%,33.72549%);fill-opacity:1;" d="M 452.09375 611.152344 L 474.574219 611.152344 L 483.941406 601.878906 L 441.789062 601.878906 Z M 452.09375 611.152344 "/>
<path style=" stroke:none;fill-rule:nonzero;fill:rgb(24.705882%,23.921569%,33.72549%);fill-opacity:1;" d="M 467.402344 129.445312 L 278.148438 129.445312 C 274.195312 129.445312 270.992188 133.980469 270.992188 139.574219 L 270.992188 319.957031 C 270.992188 325.550781 274.195312 330.085938 278.148438 330.085938 L 349.992188 330.085938 L 347.300781 354.398438 C 347.300781 354.398438 331.917969 365.960938 342.734375 366.300781 C 353.546875 366.640625 404.5 366.300781 404.5 366.300781 C 404.5 366.300781 414.355469 366.300781 398.734375 354.058594 L 396.199219 330.085938 L 467.402344 330.085938 C 471.355469 330.085938 474.5625 325.550781 474.558594 319.957031 L 474.558594 139.574219 C 474.5625 133.980469 471.355469 129.445312 467.402344 129.445312 Z M 467.402344 129.445312 "/>
<path style=" stroke:none;fill-rule:nonzero;fill:rgb(94.901961%,94.901961%,94.901961%);fill-opacity:1;" d="M 277.839844 140.15625 L 467.710938 140.15625 L 467.710938 290.464844 L 277.839844 290.464844 Z M 277.839844 140.15625 "/>
<path style=" stroke:none;fill-rule:nonzero;fill:rgb(94.901961%,94.901961%,94.901961%);fill-opacity:1;" d="M 373.976562 135.398438 C 373.976562 136.335938 373.4375 137.097656 372.777344 137.097656 C 372.113281 137.097656 371.574219 136.335938 371.574219 135.398438 C 371.574219 134.457031 372.113281 133.695312 372.777344 133.695312 C 373.4375 133.695312 373.976562 134.457031 373.976562 135.398438 Z M 373.976562 135.398438 "/>
<path style=" stroke:none;fill-rule:nonzero;fill:rgb(94.901961%,94.901961%,94.901961%);fill-opacity:1;" d="M 377.34375 316.3125 C 377.34375 319.878906 375.296875 322.773438 372.777344 322.773438 C 370.253906 322.773438 368.210938 319.878906 368.210938 316.3125 C 368.210938 312.742188 370.253906 309.851562 372.777344 309.851562 C 375.296875 309.851562 377.34375 312.742188 377.34375 316.3125 Z M 377.34375 316.3125 "/>
<path style=" stroke:none;fill-rule:nonzero;fill:rgb(24.705882%,23.921569%,33.72549%);fill-opacity:1;" d="M 365.660156 384.664062 L 365.660156 388.066406 L 236.355469 388.066406 L 236.355469 385.34375 L 236.535156 384.664062 L 239.71875 372.421875 L 363.015625 372.421875 Z M 365.660156 384.664062 "/>
<path style=" stroke:none;fill-rule:nonzero;fill:rgb(24.705882%,23.921569%,33.72549%);fill-opacity:1;" d="M 415.417969 381.335938 C 415.183594 382.761719 414.296875 384.261719 412.285156 385.683594 C 405.074219 390.785156 390.414062 384.324219 390.414062 384.324219 C 390.414062 384.324219 379.117188 381.605469 379.117188 374.464844 C 379.4375 374.15625 379.765625 373.878906 380.109375 373.628906 C 383.140625 371.359375 393.191406 365.761719 411.011719 373.867188 C 412.324219 374.449219 413.5 375.539062 414.402344 377.007812 C 415.210938 378.136719 415.589844 379.746094 415.417969 381.335938 Z M 415.417969 381.335938 "/>
<use xlink:href="#surface14" mask="url(#mask3)"/>
<path style=" stroke:none;fill-rule:nonzero;fill:rgb(94.901961%,94.901961%,94.901961%);fill-opacity:1;" d="M 407.480469 377.183594 C 407.480469 376.433594 406.082031 375.824219 404.355469 375.824219 C 402.628906 375.824219 401.230469 376.433594 401.230469 377.183594 C 401.230469 377.933594 402.628906 378.542969 404.355469 378.542969 C 406.082031 378.542969 407.480469 377.933594 407.480469 377.183594 Z M 407.480469 377.183594 "/>
<use xlink:href="#surface17" mask="url(#mask4)"/>
<path style=" stroke:none;fill-rule:nonzero;fill:rgb(18.431373%,18.039216%,25.490196%);fill-opacity:1;" d="M 71.894531 0 C 70.582031 -0.152344 69.269531 0.261719 68.125 1.191406 C 67.003906 2.277344 66.300781 4.179688 65.578125 5.953125 C 62.820312 12.800781 59.085938 18.769531 54.613281 23.472656 C 51.359375 26.847656 47.214844 31.058594 47.773438 37.285156 C 48.066406 39.339844 48.605469 41.3125 49.363281 43.113281 C 52.367188 51.699219 60.566406 58.332031 59.761719 68.125 C 62.746094 61.050781 58.753906 57.554688 61.738281 50.484375 C 63.160156 47.117188 65.628906 43.3125 67.777344 45.429688 C 68.496094 46.136719 68.96875 47.40625 69.714844 48.027344 C 71.5 49.511719 73.402344 46.675781 74.980469 44.667969 C 80.433594 37.746094 88.183594 39.558594 94.96875 41.71875 C 98.167969 42.734375 101.6875 44.070312 103.578125 48.402344 C 106.066406 54.09375 101.214844 60.246094 99.988281 66.683594 C 99.785156 67.796875 99.980469 68.980469 100.511719 69.847656 C 101.042969 70.71875 101.839844 71.167969 102.648438 71.046875 C 104.683594 70.761719 107.09375 70.53125 107.214844 69.265625 C 109.777344 69.394531 112.914062 68.984375 114.011719 65.210938 C 114.347656 63.71875 114.523438 62.164062 114.535156 60.597656 C 114.941406 54.261719 116.839844 48.480469 118.101562 42.449219 C 119.359375 36.417969 119.90625 29.347656 117.78125 24 C 117.023438 22.222656 116.085938 20.609375 114.996094 19.210938 C 102.9375 2.699219 87.082031 -0.0234375 71.894531 0 Z M 71.894531 0 "/>
<path style=" stroke:none;fill-rule:nonzero;fill:rgb(100%,72.156863%,72.156863%);fill-opacity:1;" d="M 62.382812 80.496094 C 62.382812 80.496094 65.007812 111.421875 55.390625 113.894531 C 45.773438 116.371094 64.132812 158.429688 64.132812 158.429688 L 107.84375 165.851562 L 97.355469 116.371094 C 97.355469 116.371094 90.359375 112.660156 94.730469 87.917969 C 99.101562 63.175781 62.382812 80.496094 62.382812 80.496094 Z M 62.382812 80.496094 "/>
<path style=" stroke:none;fill-rule:nonzero;fill:rgb(100%,72.156863%,72.156863%);fill-opacity:1;" d="M 35.71875 611.804688 L 39.214844 679.84375 L 57.574219 679.84375 L 52.328125 611.804688 Z M 35.71875 611.804688 "/>
<path style=" stroke:none;fill-rule:nonzero;fill:rgb(100%,72.156863%,72.156863%);fill-opacity:1;" d="M 170.355469 483.152344 L 172.980469 540.054688 L 193.089844 527.6875 L 185.21875 480.679688 Z M 170.355469 483.152344 "/>
<path style=" stroke:none;fill-rule:nonzero;fill:rgb(18.431373%,18.039216%,25.490196%);fill-opacity:1;" d="M 22.601562 352.027344 C 22.601562 352.027344 23.476562 423.773438 28.722656 447.277344 C 33.96875 470.78125 33.09375 472.019531 32.21875 475.730469 C 31.347656 479.441406 30.472656 476.96875 30.472656 483.152344 C 30.472656 489.335938 28.722656 587.0625 30.472656 595.722656 C 32.21875 604.382812 25.226562 619.226562 30.472656 620.464844 C 35.71875 621.699219 60.199219 620.464844 61.070312 613.042969 C 61.945312 605.621094 54.078125 603.144531 57.574219 598.195312 C 61.070312 593.25 66.316406 491.8125 66.316406 491.8125 L 78.558594 421.300781 L 101.289062 384.1875 L 149.375 384.1875 L 164.238281 465.832031 C 164.238281 465.832031 158.117188 489.335938 162.488281 489.335938 C 166.859375 489.335938 193.089844 496.757812 193.089844 469.542969 C 193.089844 442.328125 184.34375 361.921875 182.597656 359.449219 C 180.847656 356.972656 183.472656 348.316406 180.847656 344.605469 C 178.226562 340.890625 147.625 314.914062 136.261719 309.964844 C 124.894531 305.019531 108.949219 299.128906 108.949219 299.128906 Z M 22.601562 352.027344 "/>
<path style=" stroke:none;fill-rule:nonzero;fill:rgb(18.431373%,18.039216%,25.490196%);fill-opacity:1;" d="M 193.089844 517.789062 C 193.089844 517.789062 179.972656 511.605469 173.855469 530.160156 C 167.734375 548.714844 170.355469 553.664062 170.355469 553.664062 C 170.355469 553.664062 190.464844 563.558594 193.960938 558.613281 C 195.484375 556.460938 200.316406 555.710938 205.289062 555.554688 C 212.863281 555.3125 214.878906 540.148438 207.722656 536.621094 C 207.511719 536.515625 207.296875 536.421875 207.078125 536.34375 C 200.082031 533.871094 193.089844 517.789062 193.089844 517.789062 Z M 193.089844 517.789062 "/>
<path style=" stroke:none;fill-rule:nonzero;fill:rgb(100%,72.156863%,72.156863%);fill-opacity:1;" d="M 108.28125 63.796875 C 108.28125 84.292969 96.539062 100.90625 82.054688 100.90625 C 67.570312 100.90625 55.824219 84.292969 55.824219 63.796875 C 55.824219 43.300781 67.570312 26.683594 82.054688 26.683594 C 96.539062 26.683594 108.28125 43.300781 108.28125 63.796875 Z M 108.28125 63.796875 "/>
<path style=" stroke:none;fill-rule:nonzero;fill:rgb(1.960784%,38.823529%,73.333333%);fill-opacity:1;" d="M 47.957031 129.359375 C 47.957031 129.359375 90.796875 141.730469 101.289062 121.9375 C 111.78125 102.144531 116.152344 177.601562 116.152344 177.601562 L 121.398438 256.773438 L 113.527344 300.070312 C 113.527344 300.070312 72.4375 347.078125 59.324219 350.789062 C 46.207031 354.5 26.101562 356.972656 26.101562 356.972656 C 26.101562 356.972656 32.21875 219.664062 32.21875 217.1875 C 32.21875 214.714844 47.957031 129.359375 47.957031 129.359375 Z M 47.957031 129.359375 "/>
<path style=" stroke:none;fill-rule:nonzero;fill:rgb(18.431373%,18.039216%,25.490196%);fill-opacity:1;" d="M 60.984375 106.15625 C 60.984375 106.15625 51.453125 98.433594 48.832031 105.855469 C 46.207031 113.277344 21.730469 131.832031 19.105469 131.832031 C 16.484375 131.832031 24.351562 234.507812 20.855469 246.878906 C 17.359375 259.246094 0.746094 349.550781 10.363281 356.972656 C 19.980469 364.394531 12.984375 349.550781 22.601562 368.105469 C 32.21875 386.664062 79.429688 386.664062 82.054688 379.242188 C 84.675781 371.820312 61.070312 316.152344 65.441406 264.195312 C 69.8125 212.238281 76.808594 140.492188 70.6875 130.59375 C 64.570312 120.699219 60.984375 106.15625 60.984375 106.15625 Z M 60.984375 106.15625 "/>
<path style=" stroke:none;fill-rule:nonzero;fill:rgb(18.431373%,18.039216%,25.490196%);fill-opacity:1;" d="M 92.546875 114.515625 L 93.761719 108.585938 C 93.761719 108.585938 130.140625 125.648438 131.886719 136.78125 C 133.636719 147.914062 132.761719 225.847656 126.644531 232.03125 C 120.523438 238.21875 111.78125 248.113281 117.898438 262.957031 C 124.019531 277.804688 131.015625 293.886719 136.261719 295.121094 C 141.503906 296.359375 151.121094 305.019531 148.5 313.675781 C 145.875 322.335938 114.402344 306.253906 114.402344 306.253906 C 114.402344 306.253906 93.421875 283.988281 94.292969 249.351562 C 95.167969 214.714844 92.546875 114.515625 92.546875 114.515625 Z M 92.546875 114.515625 "/>
<path style=" stroke:none;fill-rule:nonzero;fill:rgb(100%,72.156863%,72.156863%);fill-opacity:1;" d="M 123.144531 260.484375 L 102.164062 316.152344 C 102.164062 316.152344 71.5625 360.683594 89.046875 365.632812 C 106.535156 370.582031 116.152344 324.8125 116.152344 324.8125 L 138.882812 279.039062 Z M 123.144531 260.484375 "/>
<path style=" stroke:none;fill-rule:nonzero;fill:rgb(18.431373%,18.039216%,25.490196%);fill-opacity:1;" d="M 73.171875 9.710938 C 72.117188 9.597656 71.054688 9.890625 70.105469 10.550781 C 69.246094 11.441406 68.535156 12.589844 68.03125 13.917969 C 65.699219 18.878906 62.660156 23.097656 59.105469 26.300781 C 56.453125 28.6875 53.082031 31.664062 53.535156 36.0625 C 53.785156 37.539062 54.222656 38.933594 54.828125 40.183594 C 57.285156 46.3125 58.261719 53.402344 57.613281 60.386719 L 64.90625 45.390625 C 66.0625 43.011719 68.074219 40.324219 69.820312 41.820312 C 70.40625 42.320312 70.789062 43.21875 71.398438 43.65625 C 72.851562 44.703125 74.398438 42.703125 75.683594 41.28125 C 80.121094 36.390625 86.433594 37.671875 91.953125 39.195312 C 94.5625 39.914062 97.425781 40.859375 98.964844 43.921875 C 101.527344 49.007812 98.851562 56.355469 100.347656 62.230469 C 101.191406 61.394531 101.761719 60.109375 101.925781 58.667969 C 104.007812 58.757812 106.5625 58.46875 107.457031 55.800781 C 107.726562 54.757812 107.875 53.652344 107.886719 52.539062 C 108.210938 48.0625 109.761719 43.976562 110.785156 39.710938 C 111.808594 35.449219 112.257812 30.453125 110.527344 26.671875 C 109.894531 25.394531 109.128906 24.253906 108.257812 23.289062 C 98.441406 11.617188 85.535156 9.691406 73.171875 9.710938 Z M 73.171875 9.710938 "/>
<path style=" stroke:none;fill-rule:nonzero;fill:rgb(18.431373%,18.039216%,25.490196%);fill-opacity:1;" d="M 123.144531 131.832031 L 131.292969 134.890625 C 131.292969 134.890625 150.25 203.582031 145.875 250.589844 C 141.503906 297.597656 138.882812 287.699219 138.882812 287.699219 C 138.882812 287.699219 131.886719 265.433594 116.152344 270.382812 Z M 123.144531 131.832031 "/>
<path style=" stroke:none;fill-rule:nonzero;fill:rgb(18.431373%,18.039216%,25.490196%);fill-opacity:1;" d="M 36.929688 670.851562 C 34.820312 674.902344 35.242188 680.699219 33.375 684.980469 C 31.757812 688.695312 28.707031 690.640625 26.679688 693.933594 C 26.035156 695.027344 25.460938 696.199219 24.960938 697.4375 C 23.082031 701.886719 21.554688 707.59375 23.40625 712.066406 C 24.894531 715.667969 28.019531 717.074219 30.890625 718.035156 C 34.515625 719.246094 38.28125 720.21875 41.949219 719.289062 C 45.617188 718.363281 49.203125 715.1875 50.511719 710.25 C 50.769531 709.007812 51.074219 707.789062 51.425781 706.597656 C 53.414062 701.058594 59.648438 701 61.683594 695.496094 C 63.109375 691.644531 61.796875 686.988281 60.492188 683.054688 L 56.496094 671.042969 C 55.167969 667.058594 49.792969 669.351562 46.992188 668.394531 C 43.335938 667.148438 39.558594 665.777344 36.929688 670.851562 Z M 36.929688 670.851562 "/>
<path style=" stroke:none;fill-rule:nonzero;fill:rgb(100%,72.156863%,72.156863%);fill-opacity:1;" d="M 7.742188 285.226562 L 44.460938 365.632812 C 44.460938 365.632812 67.191406 406.457031 74.1875 387.898438 C 81.179688 369.34375 49.707031 338.417969 49.707031 338.417969 L 26.101562 276.566406 Z M 7.742188 285.226562 "/>
<path style=" stroke:none;fill-rule:nonzero;fill:rgb(18.431373%,18.039216%,25.490196%);fill-opacity:1;" d="M 26.101562 134.304688 L 19.105469 131.832031 C 19.105469 131.832031 5.117188 138.015625 1.621094 163.996094 C -1.875 189.972656 0.746094 293.886719 5.117188 295.121094 C 9.488281 296.359375 26.707031 277.027344 29.464844 281.128906 C 32.21875 285.226562 23.476562 264.195312 26.101562 253.0625 C 28.722656 241.929688 26.101562 134.304688 26.101562 134.304688 Z M 26.101562 134.304688 "/>
<path style=" stroke:none;fill-rule:nonzero;fill:rgb(1.960784%,38.823529%,73.333333%);fill-opacity:1;" d="M 332.207031 189.523438 L 354.804688 189.523438 L 354.804688 197.222656 L 332.207031 197.222656 Z M 332.207031 189.523438 "/>
<path style=" stroke:none;fill-rule:nonzero;fill:rgb(1.960784%,38.823529%,73.333333%);fill-opacity:1;" d="M 425.105469 189.523438 L 433.054688 189.523438 L 433.054688 197.222656 L 425.105469 197.222656 Z M 425.105469 189.523438 "/>
<path style=" stroke:none;fill-rule:nonzero;fill:rgb(1.960784%,38.823529%,73.333333%);fill-opacity:1;" d="M 441.007812 189.523438 L 448.957031 189.523438 L 448.957031 197.222656 L 441.007812 197.222656 Z M 441.007812 189.523438 "/>
<path style=" stroke:none;fill-rule:nonzero;fill:rgb(1.960784%,38.823529%,73.333333%);fill-opacity:1;" d="M 362.753906 189.523438 L 416.734375 189.523438 L 416.734375 197.222656 L 362.753906 197.222656 Z M 362.753906 189.523438 "/>
<path style=" stroke:none;fill-rule:nonzero;fill:rgb(1.960784%,38.823529%,73.333333%);fill-opacity:1;" d="M 303.753906 239.257812 L 326.347656 239.257812 L 326.347656 246.957031 L 303.753906 246.957031 Z M 303.753906 239.257812 "/>
<path style=" stroke:none;fill-rule:nonzero;fill:rgb(1.960784%,38.823529%,73.333333%);fill-opacity:1;" d="M 396.648438 239.257812 L 404.601562 239.257812 L 404.601562 246.957031 L 396.648438 246.957031 Z M 396.648438 239.257812 "/>
<path style=" stroke:none;fill-rule:nonzero;fill:rgb(1.960784%,38.823529%,73.333333%);fill-opacity:1;" d="M 412.550781 239.257812 L 420.503906 239.257812 L 420.503906 246.957031 L 412.550781 246.957031 Z M 412.550781 239.257812 "/>
<path style=" stroke:none;fill-rule:nonzero;fill:rgb(1.960784%,38.823529%,73.333333%);fill-opacity:1;" d="M 334.300781 239.257812 L 388.28125 239.257812 L 388.28125 246.957031 L 334.300781 246.957031 Z M 334.300781 239.257812 "/>
<path style=" stroke:none;fill-rule:nonzero;fill:rgb(1.960784%,38.823529%,73.333333%);fill-opacity:1;" d="M 397.070312 206.695312 L 419.664062 206.695312 L 419.664062 214.390625 L 397.070312 214.390625 Z M 397.070312 206.695312 "/>
<path style=" stroke:none;fill-rule:nonzero;fill:rgb(1.960784%,38.823529%,73.333333%);fill-opacity:1;" d="M 427.617188 206.695312 L 450.210938 206.695312 L 450.210938 214.390625 L 427.617188 214.390625 Z M 427.617188 206.695312 "/>
<path style=" stroke:none;fill-rule:nonzero;fill:rgb(1.960784%,38.823529%,73.333333%);fill-opacity:1;" d="M 303.753906 206.695312 L 311.703125 206.695312 L 311.703125 214.390625 L 303.753906 214.390625 Z M 303.753906 206.695312 "/>
<path style=" stroke:none;fill-rule:nonzero;fill:rgb(1.960784%,38.823529%,73.333333%);fill-opacity:1;" d="M 319.652344 206.695312 L 327.605469 206.695312 L 327.605469 214.390625 L 319.652344 214.390625 Z M 319.652344 206.695312 "/>
<path style=" stroke:none;fill-rule:nonzero;fill:rgb(1.960784%,38.823529%,73.333333%);fill-opacity:1;" d="M 335.554688 206.695312 L 389.535156 206.695312 L 389.535156 214.390625 L 335.554688 214.390625 Z M 335.554688 206.695312 "/>
<path style=" stroke:none;fill-rule:nonzero;fill:rgb(1.960784%,38.823529%,73.333333%);fill-opacity:1;" d="M 350.203125 223.273438 L 372.796875 223.273438 L 372.796875 230.96875 L 350.203125 230.96875 Z M 350.203125 223.273438 "/>
<path style=" stroke:none;fill-rule:nonzero;fill:rgb(1.960784%,38.823529%,73.333333%);fill-opacity:1;" d="M 319.652344 223.273438 L 342.25 223.273438 L 342.25 230.96875 L 319.652344 230.96875 Z M 319.652344 223.273438 "/>
<path style=" stroke:none;fill-rule:nonzero;fill:rgb(1.960784%,38.823529%,73.333333%);fill-opacity:1;" d="M 303.753906 223.273438 L 311.703125 223.273438 L 311.703125 230.96875 L 303.753906 230.96875 Z M 303.753906 223.273438 "/>
<path style=" stroke:none;fill-rule:nonzero;fill:rgb(1.960784%,38.823529%,73.333333%);fill-opacity:1;" d="M 442.261719 223.273438 L 450.214844 223.273438 L 450.214844 230.96875 L 442.261719 230.96875 Z M 442.261719 223.273438 "/>
<path style=" stroke:none;fill-rule:nonzero;fill:rgb(1.960784%,38.823529%,73.333333%);fill-opacity:1;" d="M 380.332031 223.273438 L 434.3125 223.273438 L 434.3125 230.96875 L 380.332031 230.96875 Z M 380.332031 223.273438 "/>
</g>
</svg>
